<?xml version="1.0" encoding="utf-8"?>
<!-- Generator: Adobe Illustrator 20.0.0, SVG Export Plug-In . SVG Version: 6.00 Build 0)  -->
<svg version="1.1" id="Layer_1" xmlns="http://www.w3.org/2000/svg" xmlns:xlink="http://www.w3.org/1999/xlink" x="0px" y="0px"
	 viewBox="0 0 105.8 69.4" style="enable-background:new 0 0 105.8 69.4;" xml:space="preserve">
<style type="text/css">
	.st0{fill:#888787;}
	.st1{fill:#888787;stroke:#A82222;stroke-width:5;stroke-linecap:round;stroke-miterlimit:10;}
</style>
<g>
	<g>
		<path class="st0" d="M20,20.4"/>
	</g>
</g>
<g>
	<path class="st0" d="M72.1,60.8H10.4c-2.4,0-4.4-2-4.4-4.4V11.6c0-2.4,2-4.4,4.4-4.4H95c2.4,0,4.4,2,4.4,4.4l0,22.4
		c0,1.4-1.1,2.5-2.5,2.5c0,0,0,0,0,0c-1.4,0-2.5-1.1-2.5-2.5l0-21.8H11v43.6h61.2c1.4,0,2.5,1.1,2.5,2.5S73.5,60.8,72.1,60.8z"/>
</g>
<g>
	<path class="st0" d="M52.4,45.6c-6.4,0-11.6-5.2-11.6-11.6c0-6.4,5.2-11.6,11.6-11.6S64.1,27.5,64.1,34
		C64.1,40.4,58.8,45.6,52.4,45.6z M52.4,27.3c-3.6,0-6.6,3-6.6,6.6c0,3.6,3,6.6,6.6,6.6c3.6,0,6.6-3,6.6-6.6
		C59.1,30.3,56.1,27.3,52.4,27.3z"/>
</g>
<g>
	<path class="st0" d="M62.6,52.9H18.1c-2.5,0-4.5-2-4.5-4.5V19.5c0-2.5,2-4.5,4.5-4.5h69.1c2.5,0,4.5,2,4.5,4.5v5.3
		c0,1.4-1.1,2.5-2.5,2.5s-2.5-1.1-2.5-2.5V20H18.6v27.8h44c1.4,0,2.5,1.1,2.5,2.5S64,52.9,62.6,52.9z"/>
</g>
<g>
	<path class="st1" d="M90,40.6"/>
</g>
<g>
	<path class="st0" d="M99.4,44.3c0,1.4-1.1,2.5-2.5,2.5H85.1v11.9c0,1.4-1.1,2.5-2.5,2.5s-2.5-1.1-2.5-2.5V46.8H68.2
		c-1.4,0-2.5-1.1-2.5-2.5s1.1-2.5,2.5-2.5h11.8V30c0-1.4,1.1-2.5,2.5-2.5s2.5,1.1,2.5,2.5v11.8h11.8C98.3,41.8,99.4,43,99.4,44.3z"
		/>
</g>
</svg>
