<?xml version="1.0" encoding="utf-8"?>
<!-- Generator: Adobe Illustrator 20.0.0, SVG Export Plug-In . SVG Version: 6.00 Build 0)  -->
<svg version="1.1" id="Layer_1" xmlns="http://www.w3.org/2000/svg" xmlns:xlink="http://www.w3.org/1999/xlink" x="0px" y="0px"
	 viewBox="0 0 57 73.2" style="enable-background:new 0 0 57 73.2;" xml:space="preserve">
<style type="text/css">
	.st0{fill:none;stroke:#A82222;stroke-width:5;stroke-linecap:round;stroke-miterlimit:10;}
	.st1{fill:#888787;}
</style>
<g>
	<g>
		<path class="st0" d="M16.5,47"/>
	</g>
</g>
<g>
	<g>
		<g>
			<path class="st1" d="M49.3,6.7H15.1c-3.5,0-6.3,2.8-6.3,6.3v0.7H4.1c-1.4,0-2.5,1.1-2.5,2.5s1.1,2.5,2.5,2.5h4.7v5H4.1
				c-1.4,0-2.5,1.1-2.5,2.5s1.1,2.5,2.5,2.5h4.7v5H4.1c-1.4,0-2.5,1.1-2.5,2.5s1.1,2.5,2.5,2.5h4.7v5H4.1c-1.4,0-2.5,1.1-2.5,2.5
				s1.1,2.5,2.5,2.5h4.7v5H4.1c-1.4,0-2.5,1.1-2.5,2.5s1.1,2.5,2.5,2.5h4.7v1.6c0,3.5,2.8,6.3,6.3,6.3h34.3c3.5,0,6.3-2.8,6.3-6.3
				V13C55.6,9.5,52.8,6.7,49.3,6.7z M50.6,60.3c0,0.7-0.6,1.3-1.3,1.3H15.1c-0.7,0-1.3-0.6-1.3-1.3V13c0-0.7,0.6-1.3,1.3-1.3h34.3
				c0.7,0,1.3,0.6,1.3,1.3V60.3z"/>
		</g>
	</g>
</g>
</svg>
