<?xml version="1.0" encoding="utf-8"?>
<!-- Generator: Adobe Illustrator 20.0.0, SVG Export Plug-In . SVG Version: 6.00 Build 0)  -->
<svg version="1.1" id="Layer_1" xmlns="http://www.w3.org/2000/svg" xmlns:xlink="http://www.w3.org/1999/xlink" x="0px" y="0px"
	 viewBox="0 0 95 69.4" style="enable-background:new 0 0 95 69.4;" xml:space="preserve">
<style type="text/css">
	.st0{fill:#888787;}
</style>
<g>
	<path class="st0" d="M25.8,23.6"/>
</g>
<g>
	<g>
		<g>
			<path class="st0" d="M45.5,47"/>
		</g>
	</g>
	<g>
		<path class="st0" d="M70.9,21.9"/>
	</g>
	<g>
		<path class="st0" d="M91.1,36.1c-0.1-9.2-7.7-16.7-17-16.7H61.2C59.1,12.2,52.5,7.3,45,7.3H22.4c-9.3,0-16.8,7.5-17,16.7
			c0,0.1,0,0.2,0,0.3V47c0,1.5,0.9,2.9,2.3,3.5c0.5,0.2,1,0.3,1.5,0.3c0.9,0,1.9-0.4,2.6-1l9.4-8.7l14,0.1c2.1,7,8.6,12.1,16.3,12.1
			h23.8l9.3,8.5c0.7,0.7,1.6,1,2.6,1c0.5,0,1-0.1,1.5-0.3c1.4-0.6,2.3-2,2.3-3.5V36.4C91.1,36.3,91.1,36.2,91.1,36.1z M34.6,36.2
			l-14.2-0.1c-0.3,0-0.5,0-0.8,0.1c-0.1,0-0.2,0.1-0.2,0.1c-0.1,0-0.2,0.1-0.2,0.1c-0.1,0-0.1,0.1-0.2,0.1c-0.1,0.1-0.2,0.1-0.3,0.2
			l-0.1,0.1l-8.1,7.5v-20c0-6.6,5.4-12,12-12H45c4.8,0,9,2.8,10.9,7.1h-4.4C42.2,19.4,34.7,26.9,34.6,36.2z M86.1,56.4l-8.2-7.5
			c-0.7-0.7-1.7-0.5-2.5-0.5H51.6c-6,0-10.9-4.4-11.8-10.1c-0.1-0.6-0.2-1.2-0.2-1.9c0-6.6,5.4-12,12-12h22.5c6.6,0,12,5.4,12,12
			V56.4z"/>
	</g>
	<g>
		<circle class="st0" cx="53.1" cy="36.3" r="2.6"/>
	</g>
	<g>
		<circle class="st0" cx="62.8" cy="36.3" r="2.6"/>
	</g>
	<g>
		<circle class="st0" cx="72.5" cy="36.3" r="2.6"/>
	</g>
</g>
</svg>
