<?xml version="1.0" encoding="utf-8"?>
<!-- Generator: Adobe Illustrator 20.0.0, SVG Export Plug-In . SVG Version: 6.00 Build 0)  -->
<svg version="1.1" id="Layer_1" xmlns="http://www.w3.org/2000/svg" xmlns:xlink="http://www.w3.org/1999/xlink" x="0px" y="0px"
	 viewBox="0 0 54.1 73.2" style="enable-background:new 0 0 54.1 73.2;" xml:space="preserve">
<style type="text/css">
	.st0{fill:none;stroke:#A82222;stroke-width:5;stroke-linecap:round;stroke-miterlimit:10;}
	.st1{fill:#888787;}
</style>
<g>
	<path class="st0" d="M24.6,48.8"/>
</g>
<g>
	<path class="st1" d="M50.7,50c-1-1-2.2-1.6-3.6-1.8V30.8c0-10.3-7.6-18.9-17.6-20.3V5.3c0-1.4-1.1-2.5-2.5-2.5s-2.5,1.1-2.5,2.5v5
		c-10.4,1-18.5,9.8-18.5,20.5v17.6c-2.7,0.8-4.6,3.4-4.6,6.3c0,3.6,3,6.6,6.6,6.6H16c1.1,5.2,5.8,9.1,11.3,9.1
		c5.6,0,10.2-3.9,11.3-9.1h7.4c3.7,0,6.6-3,6.6-6.6C52.7,52.9,52,51.3,50.7,50z M27.3,65.4c-2.8,0-5.1-1.7-6.1-4.1h12.3
		C32.5,63.7,30.1,65.4,27.3,65.4z M46.1,56.3H8c-0.9,0-1.6-0.7-1.6-1.6c0-0.9,0.7-1.6,1.6-1.6c1.7,0,3-1.3,3-3V30.8
		c0-8.6,7-15.6,15.5-15.6c8.6,0,15.6,7,15.6,15.6v18.4c0,1,0.4,2,1.1,2.7c0.7,0.7,1.7,1.1,2.7,1.1h0c0.4,0,0.8,0.2,1.1,0.5
		c0.3,0.3,0.5,0.7,0.5,1.1C47.7,55.6,47,56.3,46.1,56.3z"/>
</g>
</svg>
