<?xml version="1.0" encoding="utf-8"?>
<!-- Generator: Adobe Illustrator 20.0.0, SVG Export Plug-In . SVG Version: 6.00 Build 0)  -->
<svg version="1.1" id="Layer_1" xmlns="http://www.w3.org/2000/svg" xmlns:xlink="http://www.w3.org/1999/xlink" x="0px" y="0px"
	 viewBox="0 0 59.3 69.4" style="enable-background:new 0 0 59.3 69.4;" xml:space="preserve">
<style type="text/css">
	.st0{fill:#888787;}
</style>
<g>
	<path class="st0" d="M-9.8,23.6"/>
</g>
<g>
	<path class="st0" d="M40.9,30.4c0.7-1.6,1.1-3.4,1.1-5.2v-7.5c0-7.3-5.9-13.2-13.2-13.2s-13.2,5.9-13.2,13.2v7.5
		c0,2,0.5,3.9,1.3,5.6c-8.5,3.6-14.5,12-14.5,21.9v5.7c0,3.7,3,6.8,6.8,6.8h40.6c3.7,0,6.8-3,6.8-6.8v-5.7
		C56.6,42.4,50.1,33.7,40.9,30.4z M20.7,17.7c0-4.5,3.7-8.2,8.2-8.2c4.5,0,8.2,3.7,8.2,8.2v7.5c0,1.5-0.4,2.8-1,4
		c-1.4,2.5-4.1,4.1-7.1,4.1c-3,0-5.6-1.6-7-4c-0.7-1.2-1.2-2.7-1.2-4.2V17.7z M51.6,58.4c0,1-0.8,1.8-1.8,1.8H9.2
		c-1,0-1.8-0.8-1.8-1.8v-5.7c0-8.2,5.3-15.2,12.7-17.7c2.3,2.1,5.4,3.3,8.8,3.3c3.5,0,6.7-1.4,9.1-3.7c7.9,2.2,13.6,9.5,13.6,18
		V58.4z"/>
</g>
</svg>
