<?xml version="1.0" encoding="utf-8"?>
<!-- Generator: Adobe Illustrator 20.0.0, SVG Export Plug-In . SVG Version: 6.00 Build 0)  -->
<svg version="1.1" id="Layer_1" xmlns="http://www.w3.org/2000/svg" xmlns:xlink="http://www.w3.org/1999/xlink" x="0px" y="0px"
	 viewBox="0 0 78.2 69.4" style="enable-background:new 0 0 78.2 69.4;" xml:space="preserve">
<style type="text/css">
	.st0{fill:#888787;stroke:#A82222;stroke-width:5;stroke-linecap:round;stroke-miterlimit:10;}
	.st1{fill:#888787;}
</style>
<g>
	<path class="st0" d="M-8.6,2.6"/>
</g>
<g>
	<path class="st1" d="M67.5,67.9h-10c-2.2,0-4.1-1.8-4.1-4.1V48c0-2.2,1.8-4.1,4.1-4.1h10c2.2,0,4.1,1.8,4.1,4.1v15.9
		C71.5,66.1,69.7,67.9,67.5,67.9z M58.4,62.9h8.1V49h-8.1V62.9z"/>
</g>
<g>
	<path class="st1" d="M43.7,68.2h-10c-2.2,0-4.1-1.8-4.1-4.1V40.3c0-2.2,1.8-4.1,4.1-4.1h10c2.2,0,4.1,1.8,4.1,4.1v23.9
		C47.8,66.4,45.9,68.2,43.7,68.2z M34.6,63.2h8.1v-22h-8.1V63.2z"/>
</g>
<g>
	<path class="st1" d="M19.9,67.9h-10c-2.2,0-4.1-1.8-4.1-4.1V31.5c0-2.2,1.8-4.1,4.1-4.1h10c2.2,0,4.1,1.8,4.1,4.1v32.3
		C24,66.1,22.2,67.9,19.9,67.9z M10.9,62.9H19V32.5h-8.1V62.9z"/>
</g>
<g>
	<path class="st1" d="M68.6,39.3c-0.5,0.5-1.2,0.8-1.8,0.8c-0.6,0-1.2-0.2-1.7-0.7L42,18.4l-7.1,7.7c-1.3,1.4-3.5,1.5-5,0.2
		L12.5,10.2l0.3,8.5c0.1,1.4-1,2.5-2.4,2.6h-0.1c-1.3,0-2.4-1.1-2.5-2.4L7.3,4.9c0-0.8,0.2-1.6,0.8-2.2c0.5-0.6,1.3-0.9,2.1-1
		l13.9-0.6c1.3-0.1,2.5,1,2.6,2.4c0.1,1.4-1,2.5-2.4,2.6l-8.5,0.3l16.3,15.1l7.1-7.7c1.3-1.4,3.5-1.5,5-0.2l24.1,22
		C69.5,36.7,69.5,38.3,68.6,39.3z"/>
</g>
</svg>
