<?xml version="1.0" encoding="utf-8"?>
<!-- Generator: Adobe Illustrator 20.0.0, SVG Export Plug-In . SVG Version: 6.00 Build 0)  -->
<svg version="1.1" id="Layer_1" xmlns="http://www.w3.org/2000/svg" xmlns:xlink="http://www.w3.org/1999/xlink" x="0px" y="0px"
	 viewBox="0 0 137.7 69.4" style="enable-background:new 0 0 137.7 69.4;" xml:space="preserve">
<style type="text/css">
	.st0{fill:#888787;}
</style>
<g>
	<g>
		<path class="st0" d="M25,20.4"/>
	</g>
</g>
<g>
	<path class="st0" d="M130.6,62.2H44.2c-2.6,0-4.7-2.1-4.7-4.7V11.9c0-2.6,2.1-4.7,4.7-4.7h86.4c2.6,0,4.7,2.1,4.7,4.7v45.5
		C135.3,60,133.2,62.2,130.6,62.2z M44.5,57.2h85.8V12.2H44.5V57.2z"/>
</g>
<g>
	<path class="st0" d="M87.2,46.2c-6.4,0-11.5-5.2-11.5-11.5c0-6.4,5.2-11.5,11.5-11.5s11.5,5.2,11.5,11.5
		C98.7,41.1,93.5,46.2,87.2,46.2z M87.2,28.1c-3.6,0-6.5,2.9-6.5,6.5s2.9,6.5,6.5,6.5c3.6,0,6.5-2.9,6.5-6.5S90.8,28.1,87.2,28.1z"
		/>
</g>
<g>
	<path class="st0" d="M123.5,53.9H52.9c-2.6,0-4.8-2.1-4.8-4.8V20c0-2.6,2.1-4.8,4.8-4.8h70.5c2.6,0,4.8,2.1,4.8,4.8v29.1
		C128.3,51.7,126.1,53.9,123.5,53.9z M53.2,48.9h70.1V20.2H53.2V48.9z"/>
</g>
<g>
	<path class="st0" d="M31.5,21.2H4.2c-1.4,0-2.5-1.1-2.5-2.5s1.1-2.5,2.5-2.5h27.3c1.4,0,2.5,1.1,2.5,2.5S32.8,21.2,31.5,21.2z"/>
</g>
<g>
	<path class="st0" d="M31.5,53.9H4.2c-1.4,0-2.5-1.1-2.5-2.5s1.1-2.5,2.5-2.5h27.3c1.4,0,2.5,1.1,2.5,2.5S32.8,53.9,31.5,53.9z"/>
</g>
<g>
	<path class="st0" d="M31.5,38.3H16c-1.4,0-2.5-1.1-2.5-2.5c0-1.4,1.1-2.5,2.5-2.5h15.4c1.4,0,2.5,1.1,2.5,2.5
		C34,37.2,32.8,38.3,31.5,38.3z"/>
</g>
</svg>
