<?xml version="1.0" encoding="utf-8"?>
<!-- Generator: Adobe Illustrator 20.0.0, SVG Export Plug-In . SVG Version: 6.00 Build 0)  -->
<svg version="1.1" id="Layer_1" xmlns="http://www.w3.org/2000/svg" xmlns:xlink="http://www.w3.org/1999/xlink" x="0px" y="0px"
	 viewBox="0 0 78.2 69.4" style="enable-background:new 0 0 78.2 69.4;" xml:space="preserve">
<style type="text/css">
	.st0{fill:#888787;}
	.st1{fill:#888787;stroke:#A82222;stroke-width:5;stroke-linecap:round;stroke-miterlimit:10;}
</style>
<g>
	<g>
		<path class="st0" d="M20,20.4"/>
	</g>
</g>
<g>
	<path class="st1" d="M2.2-19.1"/>
</g>
<g>
	<path class="st0" d="M39.9,24.5c-0.5,0.5-1.1,0.7-1.8,0.7s-1.3-0.2-1.8-0.7l-9.8-9.8v38.7c0,1.4-1.1,2.5-2.5,2.5s-2.5-1.1-2.5-2.5
		V14.7l-9.8,9.8c-1,1-2.6,1-3.5,0s-1-2.6,0-3.5L21.6,7.4c1.3-1.3,3.4-1.3,4.7,0l13.5,13.5C40.8,21.9,40.8,23.5,39.9,24.5z"/>
</g>
<g>
	<path class="st0" d="M71.8,43.5L58.3,57c-0.6,0.6-1.5,1-2.4,1c-0.9,0-1.7-0.3-2.4-1L40.1,43.5c-1-1-1-2.6,0-3.5c1-1,2.6-1,3.5,0
		l9.8,9.8V11.1c0-1.4,1.1-2.5,2.5-2.5s2.5,1.1,2.5,2.5v38.7l9.8-9.8c1-1,2.6-1,3.5,0C72.8,41,72.8,42.5,71.8,43.5z"/>
</g>
</svg>
