<?xml version="1.0" encoding="utf-8"?>
<!-- Generator: Adobe Illustrator 20.0.0, SVG Export Plug-In . SVG Version: 6.00 Build 0)  -->
<svg version="1.1" id="Layer_1" xmlns="http://www.w3.org/2000/svg" xmlns:xlink="http://www.w3.org/1999/xlink" x="0px" y="0px"
	 viewBox="0 0 64.9 73.2" style="enable-background:new 0 0 64.9 73.2;" xml:space="preserve">
<style type="text/css">
	.st0{fill:none;stroke:#A82222;stroke-width:5;stroke-linecap:round;stroke-miterlimit:10;}
	.st1{fill:#888787;}
</style>
<g>
	<g>
		<path class="st0" d="M24.4,47"/>
	</g>
</g>
<g>
	<path class="st1" d="M4.8,23.6"/>
</g>
<g>
	<path class="st1" d="M49.8,21.9"/>
</g>
<g>
	<path class="st1" d="M56,19.4h-3.8v-6.1c0-3-2.4-5.4-5.3-5.6c-0.1,0-0.2,0-0.3,0h-36C6,7.7,2.2,11.4,2.2,16v43.6
		c0,4.3,3.5,7.8,7.8,7.8h45.3c4.3,0,7.8-3.5,7.8-7.8V26.6C63.2,22.6,60,19.4,56,19.4z M10.7,12.7h36c0.3,0,0.6,0.3,0.6,0.6v6.1H10.7
		c-1.9,0-3.4-1.5-3.4-3.4S8.8,12.7,10.7,12.7z M58.2,59.7c0,1.5-1.3,2.8-2.8,2.8H10.1c-1.6,0-2.8-1.3-2.8-2.8v-36
		c1,0.5,2.2,0.7,3.4,0.7H56c1.2,0,2.2,1,2.2,2.2v13.5H51c-1.4,0-2.5,1.1-2.5,2.5s1.1,2.5,2.5,2.5h7.2V59.7z"/>
</g>
</svg>
